<svg xmlns="http://www.w3.org/2000/svg" xmlns:svg="http://www.w3.org/2000/svg" xmlns:xlink="http://www.w3.org/1999/xlink" id="Flag_of_the_Cook_Islands" width="256" height="256" baseProfile="full" preserveAspectRatio="xMidYMid meet" version="1.0" viewBox="-15 -7.5 30 15" zoomAndPan="magnify"><metadata/><defs id="defs3868"><clipPath id="border"><rect id="rect3871" width="30" height="15" x="-15" y="-7.5"/></clipPath></defs><rect id="rect3873" width="30" height="15" x="-15" y="-7.5" style="fill:#00247d"/><comment id="comment3875">The above line is the ensign field color: #CF142B red and #00247D blue</comment><g id="canton" transform="matrix(0.5,0,0,0.5,-7.5,-3.75)"><g id="g3878" clip-path="url(#border)"><circle id="circle3880" cx="0" cy="0" r="20" style="fill:#00247d"/><path id="diags_white" d="M -20,-10 L 20,10 M -20,10 L 20,-10" style="stroke:#fff;stroke-width:3"/><path id="diags_red" d="M -20,-10 L 20,10 M -20,10 L 20,-10" style="stroke:#cf142b;stroke-width:2"/><path id="eraser_white" d="M 0,0 L 20,10 L 17,10 L -3,0 M 0,0 L 20,-10 L 23,-10 L 3,0 M 0,0 L -20,10 L -23,10 L -3,0 M 0,0 L -20,-10 L -17,-10 L 3,0" style="fill:#fff;stroke:none"/><comment id="comment3885">I think the above two lines give the simplest way to make the diagonals</comment><path id="cross_white" d="M -20,0 L 20,0 M 0,-10 L 0,10" style="stroke:#fff;stroke-width:5"/><path id="cross_red" d="M -20,0 L 20,0 M 0,-10 L 0,10" style="stroke:#cf142b;stroke-width:3"/></g></g><g id="star" transform="matrix(1.125,0,0,1.125,7.5,-5.1)" style="fill:#fff"><g id="cone"><polygon id="triangle" points="0 0 0 1 .5 1 0 0" transform="matrix(0.9510565,0.309017,-0.309017,0.9510565,0,-1)"/><use id="use3892" width="30" height="15" x="0" y="0" transform="scale(-1,1)" xlink:href="#triangle"/></g><use id="use3894" width="30" height="15" x="0" y="0" transform="matrix(0.309017,0.9510565,-0.9510565,0.309017,0,0)" xlink:href="#cone"/><use id="use3896" width="30" height="15" x="0" y="0" transform="matrix(0.309017,-0.9510565,0.9510565,0.309017,0,0)" xlink:href="#cone"/><use id="use3898" width="30" height="15" x="0" y="0" transform="matrix(-0.809017,0.5877853,-0.5877853,-0.809017,0,0)" xlink:href="#cone"/><use id="use3900" width="30" height="15" x="0" y="0" transform="matrix(-0.809017,-0.5877853,0.5877853,-0.809017,0,0)" xlink:href="#cone"/></g><use id="use3902" width="30" height="15" x="0" y="0" transform="matrix(0.9135455,0.4067366,-0.4067366,0.9135455,0.6484091,-3.0505248)" xlink:href="#star"/><use id="use3904" width="30" height="15" x="0" y="0" transform="matrix(0.6691306,0.7431448,-0.7431448,0.6691306,2.4815205,-5.5735862)" xlink:href="#star"/><use id="use3906" width="30" height="15" x="0" y="0" transform="matrix(0.309017,0.9510565,-0.9510565,0.309017,5.1823725,-7.1329239)" xlink:href="#star"/><use id="use3908" width="30" height="15" x="0" y="0" transform="matrix(-0.1045285,0.9945219,-0.9945219,-0.1045285,8.2839635,-7.4589142)" xlink:href="#star"/><use id="use3910" width="30" height="15" x="0" y="0" transform="matrix(-0.5,0.8660254,-0.8660254,-0.5,11.25,-6.4951905)" xlink:href="#star"/><use id="use3912" width="30" height="15" x="0" y="0" transform="matrix(-0.809017,0.5877853,-0.5877853,-0.809017,13.567627,-4.4083894)" xlink:href="#star"/><use id="use3914" width="30" height="15" x="0" y="0" transform="matrix(-0.9781476,0.2079117,-0.2079117,-0.9781476,14.836107,-1.5593377)" xlink:href="#star"/><use id="use3916" width="30" height="15" x="0" y="0" transform="matrix(-0.9781476,-0.2079117,0.2079117,-0.9781476,14.836107,1.5593377)" xlink:href="#star"/><use id="use3918" width="30" height="15" x="0" y="0" transform="matrix(-0.809017,-0.5877853,0.5877853,-0.809017,13.567627,4.4083894)" xlink:href="#star"/><use id="use3920" width="30" height="15" x="0" y="0" transform="matrix(-0.5,-0.8660254,0.8660254,-0.5,11.25,6.4951905)" xlink:href="#star"/><use id="use3922" width="30" height="15" x="0" y="0" transform="matrix(-0.1045285,-0.9945219,0.9945219,-0.1045285,8.2839635,7.4589142)" xlink:href="#star"/><use id="use3924" width="30" height="15" x="0" y="0" transform="matrix(0.309017,-0.9510565,0.9510565,0.309017,5.1823725,7.1329239)" xlink:href="#star"/><use id="use3926" width="30" height="15" x="0" y="0" transform="matrix(0.6691306,-0.7431448,0.7431448,0.6691306,2.4815205,5.5735862)" xlink:href="#star"/><use id="use3928" width="30" height="15" x="0" y="0" transform="matrix(0.9135455,-0.4067366,0.4067366,0.9135455,0.6484091,3.0505248)" xlink:href="#star"/></svg>